<?xml version="1.0" encoding="UTF-8"?>
<svg version="1.1" xmlns="http://www.w3.org/2000/svg" width="512" height="512">
<path d="M0 0 C1.44632812 0.79857422 1.44632812 0.79857422 2.921875 1.61328125 C21.84754727 12.89589357 35.2969371 29.09125554 46 48 C46.99477045 49.66979326 47.99260254 51.33779419 49 53 C49.54785156 52.68546875 50.09570312 52.3709375 50.66015625 52.046875 C66.83932736 43.31275336 85.14804561 41.30237452 103 45.5625 C122.27945988 51.56757767 136.71605566 63.80806592 146.203125 81.41015625 C150.61395396 89.97734327 152.62197978 98.39828649 153 108 C153.59683594 108.11214844 154.19367188 108.22429687 154.80859375 108.33984375 C178.46250624 113.71733054 199.8461832 131.5712604 212.94140625 151.5625 C228.56307668 177.15087037 234.35792076 206.55587733 227.49609375 236.00927734 C223.33941181 252.689191 215.85709038 266.75098609 205 280 C204.30261719 280.86238281 203.60523438 281.72476562 202.88671875 282.61328125 C192.41914915 294.91793802 177.66424153 305.71885855 162 310 C162.00276538 310.74838072 162.00553076 311.49676144 162.00837994 312.26782036 C162.07472905 330.50556935 162.12432396 348.74329415 162.15543652 366.98113823 C162.17088351 375.80094623 162.19193144 384.62067351 162.22631836 393.44042969 C162.25628725 401.13071058 162.27559075 408.82093298 162.28226548 416.51127064 C162.28616509 420.58055371 162.29528417 424.64966949 162.31719017 428.71889877 C162.33767388 432.55529799 162.34381001 436.39146228 162.33932304 440.227911 C162.34014296 441.62987358 162.34603756 443.03184468 162.35761642 444.43375969 C162.44428925 455.47683145 161.84597011 465.03409192 153.97265625 473.30859375 C148.67974881 477.84686884 142.62010404 480.12130891 135.68967247 480.13422108 C134.58152982 480.13867892 133.47338717 480.14313676 132.33166444 480.14772969 C131.10922049 480.14754533 129.88677653 480.14736097 128.62728882 480.14717102 C127.33250599 480.15084771 126.03772315 480.1545244 124.70370448 480.1583125 C121.10215603 480.16833696 117.50062425 480.17205001 113.89906383 480.17470181 C110.01751035 480.17860358 106.13597009 480.18818206 102.25442505 480.19691467 C92.87624326 480.21668347 83.49806039 480.22674617 74.11986297 480.23564246 C69.70388686 480.24002499 65.28791196 480.24539192 60.8719368 480.25063133 C46.19254747 480.26764461 31.51315889 480.28213861 16.83376122 480.28938007 C13.023777 480.29128998 9.21379279 480.29321031 5.40380859 480.29516602 C3.9833713 480.29589163 3.9833713 480.29589163 2.53423829 480.2966319 C-12.80459553 480.30493153 -28.14335134 480.33026686 -43.48215111 480.36274669 C-59.22901391 480.3958188 -74.97583709 480.413829 -90.72273481 480.41702431 C-99.56447966 480.41918935 -108.4061108 480.42793703 -117.24782181 480.45348549 C-124.77825934 480.47519462 -132.30855553 480.48324191 -139.8390208 480.47351871 C-143.68017257 480.46897449 -147.52103272 480.47086698 -151.36214447 480.49028015 C-155.530097 480.51116291 -159.69740309 480.50092497 -163.86538696 480.48774719 C-165.6789764 480.50420106 -165.6789764 480.50420106 -167.52920401 480.52098733 C-177.08134278 480.44805027 -184.37455212 478.23373414 -191.49609375 471.70703125 C-196.84026111 465.64105428 -198.12698411 458.69838947 -198.12025452 450.81803894 C-198.12231651 448.95240799 -198.12231651 448.95240799 -198.12442017 447.04908752 C-198.12088151 445.67880225 -198.11724671 444.30851722 -198.11352539 442.93823242 C-198.11324319 441.48923749 -198.1134019 440.04024241 -198.1139679 438.59124756 C-198.11425459 434.66397038 -198.10837853 430.7367238 -198.10139394 426.80945373 C-198.0951391 422.70283015 -198.09455491 418.59620585 -198.09336853 414.48957825 C-198.0902615 406.71593318 -198.08205657 398.94230219 -198.07201904 391.16866332 C-198.06083841 382.31744807 -198.05534253 373.46623213 -198.05032361 364.61501157 C-198.03987344 346.40999974 -198.02228615 328.205001 -198 310 C-198.61311539 309.80133835 -199.22623077 309.6026767 -199.85792542 309.397995 C-201.0682267 309.00122307 -201.0682267 309.00122307 -202.30297852 308.59643555 C-203.1017189 308.3358989 -203.90045929 308.07536224 -204.72340393 307.80693054 C-213.87441282 304.56339135 -221.6999222 298.22618206 -229 292 C-230.12341797 291.09507812 -230.12341797 291.09507812 -231.26953125 290.171875 C-251.24019844 273.52382319 -263.67656195 246.57496572 -266 221 C-267.56990714 192.00378484 -260.70534845 164.1611037 -241.48046875 141.7265625 C-225.56861721 124.23605482 -207.2371052 111.6530366 -184 106 C-183.01 106 -182.02 106 -181 106 C-180.97421875 104.83726562 -180.9484375 103.67453125 -180.921875 102.4765625 C-179.86024888 68.77792214 -166.98767334 38.78400537 -142.58203125 15.30078125 C-102.70269504 -20.23466358 -46.21370776 -25.59626632 0 0 Z " fill="#8DD1FE" transform="translate(274,24)"/>
<path d="M0 0 C1.44632812 0.79857422 1.44632812 0.79857422 2.921875 1.61328125 C21.84754727 12.89589357 35.2969371 29.09125554 46 48 C46.99477045 49.66979326 47.99260254 51.33779419 49 53 C49.54785156 52.68546875 50.09570312 52.3709375 50.66015625 52.046875 C66.83932736 43.31275336 85.14804561 41.30237452 103 45.5625 C122.27945988 51.56757767 136.71605566 63.80806592 146.203125 81.41015625 C150.61395396 89.97734327 152.62197978 98.39828649 153 108 C153.59683594 108.11214844 154.19367188 108.22429687 154.80859375 108.33984375 C178.46250624 113.71733054 199.8461832 131.5712604 212.94140625 151.5625 C228.56307668 177.15087037 234.35792076 206.55587733 227.49609375 236.00927734 C223.33941181 252.689191 215.85709038 266.75098609 205 280 C204.30261719 280.86238281 203.60523438 281.72476562 202.88671875 282.61328125 C192.96564724 294.27552801 178.60617066 304.99788676 164 310 C163.01 310 162.02 310 161 310 C160.99945523 309.44230738 160.99891047 308.88461475 160.99834919 308.31002235 C160.98334397 294.70366602 160.94043293 281.09764003 160.86790943 267.49146461 C160.83367083 260.91141865 160.80853421 254.3316041 160.80444336 247.75146484 C160.80015387 241.3970127 160.77163575 235.04308235 160.72656822 228.68879318 C160.71361426 226.26884377 160.70927804 223.84883185 160.71384621 221.42885208 C160.71876679 218.02963703 160.69259207 214.63193841 160.65942383 211.23291016 C160.66804947 210.24028168 160.67667511 209.2476532 160.68556213 208.22494507 C160.57218866 201.25897419 158.96430494 195.7907322 155 190 C148.82211143 184.12342351 143.19386177 181.75063602 134.62579346 181.7484436 C133.52635127 181.7439884 133.52635127 181.7439884 132.40469813 181.73944318 C129.95363803 181.73181708 127.50281855 181.73829151 125.05175781 181.74462891 C123.29224485 181.74187831 121.53273313 181.73819799 119.77322388 181.73365784 C115.98585584 181.72554932 112.19854683 181.72337653 108.41117096 181.72560501 C102.41816899 181.7284396 96.42528477 181.71408002 90.43231201 181.69662476 C73.39109061 181.64961375 56.34987712 181.62566192 39.30859375 181.61914062 C29.89545798 181.6153864 20.4824554 181.59732715 11.06937671 181.56404626 C5.11655499 181.54385969 -0.83592257 181.54144876 -6.78876448 181.55232644 C-10.49967251 181.5549398 -14.21038161 181.54089882 -17.92123795 181.52224541 C-19.63644052 181.51693804 -21.35168006 181.51839524 -23.06686783 181.52728081 C-33.54453405 181.57716341 -42.92238608 181.38526305 -51 173.8125 C-51.6496875 173.214375 -52.299375 172.61625 -52.96875 172 C-54.4068911 170.58398415 -55.82145433 169.14383633 -57.21875 167.6875 C-63.15992085 161.50217144 -69.09629234 156.46331379 -78.04161263 155.86298561 C-78.769746 155.85741331 -79.49787937 155.85184101 -80.24807739 155.84609985 C-81.50939232 155.83319916 -81.50939232 155.83319916 -82.79618835 155.82003784 C-83.71052139 155.81577789 -84.62485443 155.81151794 -85.56689453 155.80712891 C-86.53652634 155.79895142 -87.50615814 155.79077393 -88.50517273 155.78234863 C-91.71437977 155.75753603 -94.92354264 155.74098747 -98.1328125 155.7265625 C-99.2309515 155.72123882 -100.3290905 155.71591515 -101.46050644 155.71043015 C-107.27509615 155.68371417 -113.08966451 155.66433587 -118.90429688 155.64990234 C-123.70755094 155.63657374 -128.51037913 155.60873808 -133.31347656 155.56787109 C-139.12124554 155.51845978 -144.92862878 155.49377057 -150.73659897 155.48667526 C-152.94449957 155.47997763 -155.15239207 155.46479461 -157.36017227 155.44078445 C-160.45947888 155.40900665 -163.55731014 155.40911563 -166.65673828 155.41650391 C-167.55892593 155.40009857 -168.46111359 155.38369324 -169.39064026 155.36679077 C-175.43465379 155.42540266 -179.61017653 156.88149413 -184.88316154 159.82910728 C-187 161 -187 161 -190 162 C-191.10847698 163.86393261 -191.10847698 163.86393261 -192 166 C-192.34686985 166.55103142 -192.6937397 167.10206284 -193.05112076 167.66979218 C-196.82115482 173.99030165 -196.5750171 180.19773241 -196.54589844 187.39257812 C-196.55464588 188.7336547 -196.56513573 190.07472087 -196.57722473 191.41577148 C-196.60496267 195.03510094 -196.60849215 198.65408779 -196.60750484 202.27350807 C-196.61064453 206.06388551 -196.63628457 209.85411102 -196.65948486 213.64440918 C-196.69996792 220.81233258 -196.7203674 227.98016518 -196.73345876 235.14818525 C-196.74935497 243.31274645 -196.78778155 251.47715371 -196.82805204 259.6416254 C-196.91034559 276.42770594 -196.96450344 293.21375387 -197 310 C-208.92623972 308.22732051 -218.83370299 300.43894806 -228 293 C-229.29744141 291.95199219 -229.29744141 291.95199219 -230.62109375 290.8828125 C-250.79192024 273.70142207 -263.61797296 247.21987699 -266 221 C-267.56990714 192.00378484 -260.70534845 164.1611037 -241.48046875 141.7265625 C-225.56861721 124.23605482 -207.2371052 111.6530366 -184 106 C-183.01 106 -182.02 106 -181 106 C-180.97421875 104.83726562 -180.9484375 103.67453125 -180.921875 102.4765625 C-179.86024888 68.77792214 -166.98767334 38.78400537 -142.58203125 15.30078125 C-102.70269504 -20.23466358 -46.21370776 -25.59626632 0 0 Z " fill="#4B84DD" transform="translate(274,24)"/>
<path d="M0 0 C0.84094711 -0.00571014 1.68189423 -0.01142029 2.54832458 -0.01730347 C3.46782394 -0.01842133 4.3873233 -0.01953918 5.33468628 -0.02069092 C6.30577835 -0.02565582 7.27687042 -0.03062073 8.27738953 -0.03573608 C11.49685369 -0.05036504 14.71626852 -0.05716217 17.9357605 -0.06268311 C20.17435711 -0.06843548 22.41295371 -0.0741932 24.65155029 -0.07995605 C29.35078155 -0.09046917 34.04999569 -0.09630931 38.74923706 -0.09979248 C44.7580603 -0.10526731 50.76665581 -0.12927252 56.77540779 -0.15776443 C61.40294036 -0.17643261 66.03041865 -0.18159872 70.65798569 -0.18312836 C72.87226476 -0.18614771 75.08654305 -0.19415193 77.30078506 -0.20731354 C80.4073109 -0.22445552 83.51328799 -0.22247338 86.61984253 -0.21600342 C87.5271965 -0.2252182 88.43455048 -0.23443298 89.36940002 -0.243927 C97.6924235 -0.18989504 104.81095237 1.3998072 110.927948 7.32794189 C111.76197144 8.11942627 112.59599487 8.91091064 113.45529175 9.72637939 C114.9840939 11.25765935 116.49899439 12.80305005 117.99435425 14.36700439 C123.54929747 20.17197441 129.66683908 24.93479781 138.01778507 25.26514053 C139.98522757 25.26507822 139.98522757 25.26507822 141.99241638 25.26501465 C143.08823694 25.26712987 143.08823694 25.26712987 144.20619529 25.26928782 C146.66107283 25.2729459 149.11589279 25.26960205 151.57077026 25.26641846 C153.32836451 25.26781305 155.08595843 25.26971226 156.84355164 25.27207947 C160.63312106 25.27657985 164.42267964 25.27843263 168.21225166 25.27854156 C174.20954764 25.2796815 180.20678198 25.29251788 186.20405579 25.30810547 C187.21622825 25.31067832 188.22840071 25.31325118 189.27124506 25.31590199 C191.34132962 25.32116879 193.41141413 25.32645427 195.4814986 25.33175802 C209.44485896 25.3668589 223.40814338 25.39342274 237.37155151 25.39093018 C246.78800732 25.38933962 256.20425349 25.40542518 265.62064213 25.4416368 C270.60206152 25.46006982 275.58313104 25.4694631 280.5645771 25.45716095 C285.25561789 25.44568895 289.94603361 25.45751031 294.6369915 25.48679543 C296.35338081 25.49341329 298.06982774 25.49160829 299.78619385 25.48049736 C309.90703959 25.42044632 318.91816451 25.62897302 326.75954533 32.89574051 C332.08551437 38.48500092 334.24874484 44.53030714 334.20602417 52.17730713 C334.20646225 52.84157211 334.20690033 53.5058371 334.20735168 54.19023132 C334.20528128 56.36014424 334.18203529 58.52925971 334.15841675 60.69903564 C334.15281452 62.2136035 334.14854739 63.72817682 334.14555359 65.24275208 C334.13415401 69.20976027 334.10472971 73.1764337 334.07144165 77.14331055 C334.0406347 81.19894891 334.02702565 85.25464188 334.01193237 89.31036377 C333.97985464 97.25387597 333.92871837 105.19711717 333.865448 113.14044189 C331.865448 111.14044189 331.865448 111.14044189 330.552948 108.32794189 C326.86425132 101.36040373 321.16314162 97.68941914 313.865448 95.14044189 C311.42491688 94.8436585 308.97272234 94.63243792 306.51779175 94.49981689 C305.26860962 94.42730713 304.01942749 94.35479736 302.73239136 94.28009033 C301.31325439 94.21096436 301.31325439 94.21096436 299.865448 94.14044189 C299.84039185 93.27765625 299.81533569 92.41487061 299.78952026 91.52593994 C299.69433415 88.32220421 299.59510356 85.11862653 299.49313354 81.9151001 C299.44984581 80.52908207 299.40816636 79.14301283 299.36813354 77.75689697 C299.31028216 75.76352391 299.24615024 73.77033624 299.18185425 71.77716064 C299.14519653 70.57792969 299.10853882 69.37869873 299.07077026 68.14312744 C298.98811775 65.09049841 298.98811775 65.09049841 297.865448 62.14044189 C294.95836249 61.018787 292.11668541 61.01276914 289.02718353 61.00622082 C287.56113639 60.99953405 287.56113639 60.99953405 286.06547213 60.9927122 C284.9942774 60.99289656 283.92308267 60.99308092 282.81942749 60.99327087 C281.67952095 60.98959419 280.5396144 60.9859175 279.36516523 60.9821294 C275.5312706 60.97108328 271.69740305 60.96724719 267.86349487 60.96343994 C265.12065905 60.95770834 262.3778273 60.95054243 259.63499451 60.94352722 C251.39631116 60.92377973 243.15762661 60.91370092 234.91892552 60.90479943 C231.04025394 60.90041563 227.16158372 60.89504923 223.28291321 60.88981056 C210.39291924 60.87280358 197.50292613 60.85830727 184.61292267 60.85106182 C181.26920063 60.84915192 177.9254786 60.84723158 174.58175659 60.84527588 C173.33515118 60.84455027 173.33515118 60.84455027 172.06336182 60.84381 C158.58680158 60.83550149 145.11032986 60.81014839 131.63380831 60.7776952 C117.80230879 60.74465809 103.97085433 60.72661629 90.13931513 60.72341758 C82.37141075 60.72124988 74.60363564 60.71246288 66.83576965 60.68695641 C60.22381301 60.66529546 53.61201707 60.65717632 47.00002897 60.66692319 C43.62521104 60.67148085 40.25099502 60.66733459 36.87617683 60.65016174 C33.22098986 60.63259751 29.56665444 60.63947318 25.91146851 60.6526947 C24.84027378 60.64172546 23.76907905 60.63075621 22.66542387 60.61945456 C17.07606776 60.58200798 17.07606776 60.58200798 12.20750809 63.01036167 C10.50390089 65.71427935 10.34881362 67.45358856 10.31954956 70.64337158 C10.29983093 71.74421082 10.2801123 72.84505005 10.25979614 73.97924805 C10.25795319 75.75286713 10.25795319 75.75286713 10.256073 77.56231689 C10.23953674 78.77743958 10.22300049 79.99256226 10.20596313 81.24450684 C10.15736837 85.12653602 10.1360856 89.00817313 10.115448 92.89044189 C10.0872981 95.52197216 10.05737207 98.15348407 10.02560425 100.78497314 C9.95160604 107.23672461 9.90003078 113.68836529 9.865448 120.14044189 C8.91863159 120.19377686 7.97181519 120.24711182 6.99630737 120.30206299 C5.74656128 120.3802124 4.49681519 120.45836182 3.209198 120.53887939 C1.97363159 120.61283936 0.73806519 120.68679932 -0.53494263 120.76300049 C-7.29007527 121.47131811 -12.91238565 123.38313376 -17.572052 128.45294189 C-20.12175153 131.78994242 -21.69080759 135.21024877 -23.134552 139.14044189 C-23.464552 139.14044189 -23.794552 139.14044189 -24.134552 139.14044189 C-24.22812507 123.63261551 -24.29859464 108.12481033 -24.34180069 92.61676788 C-24.36239813 85.41557866 -24.39046438 78.21456517 -24.43630981 71.01348877 C-24.47626441 64.73469276 -24.5020053 58.45602408 -24.51090598 52.17710447 C-24.51610631 48.85448614 -24.53038885 45.53231544 -24.55747223 42.20979309 C-24.58655085 38.4944 -24.59050594 34.77975878 -24.58865356 31.06427002 C-24.60303467 29.9709436 -24.61741577 28.87761719 -24.63223267 27.75115967 C-24.58943527 19.80683374 -22.99280034 14.55446074 -17.884552 8.45294189 C-12.54804086 3.96542116 -7.172858 0.02921437 0 0 Z " fill="#69ADFD" transform="translate(101.13455200195313,178.85955810546875)"/>
<path d="M0 0 C1.14076097 -0.00568326 2.28152194 -0.01136651 3.45685142 -0.01722199 C7.28800396 -0.03016414 11.11810823 -0.00729932 14.94920349 0.0153656 C17.69219713 0.01627252 20.43516095 0.00967189 23.17814636 0.00341797 C29.85987882 -0.00725644 36.54129624 0.00869723 43.22298069 0.03355623 C51.00192232 0.06147556 58.78080002 0.06282918 66.55978345 0.06299924 C80.43754174 0.06418675 94.31515524 0.0891643 108.19285583 0.12767029 C121.66357663 0.16502293 135.13419212 0.18626629 148.60496521 0.18919373 C149.84966001 0.18946794 149.84966001 0.18946794 151.11950017 0.1897477 C151.94785297 0.18992667 152.77620578 0.19010564 153.62966019 0.19029003 C155.29744407 0.19065545 156.96522794 0.19102782 158.63301182 0.1914072 C159.45547635 0.19159272 160.27794088 0.19177823 161.12532857 0.19196937 C173.95719106 0.19553867 186.78903724 0.21398884 199.62088319 0.23390045 C204.27384243 0.24092524 208.92679781 0.24570668 213.57976121 0.2488618 C220.95943024 0.25390853 228.33902593 0.26532249 235.7186572 0.29016209 C239.09129154 0.30139247 242.46379145 0.30844159 245.83645439 0.30902863 C249.48921196 0.31028108 253.14171927 0.32378538 256.79443359 0.34057617 C258.40020251 0.33695355 258.40020251 0.33695355 260.0384112 0.33325773 C261.5035333 0.34385612 261.5035333 0.34385612 262.99825382 0.35466862 C263.84156035 0.35661954 264.68486689 0.35857046 265.55372816 0.3605805 C268.10998707 0.64552566 269.67386564 1.22689324 271.83372498 2.61473083 C274.25576536 6.24779141 274.06675388 7.93292106 274.02903748 12.25144958 C274.02259216 13.55018005 274.01614685 14.84891052 274.00950623 16.18699646 C273.99279558 17.55874391 273.97586569 18.9304887 273.95872498 20.30223083 C273.94869171 21.68568802 273.93956647 23.06915211 273.93138123 24.45262146 C273.90777465 27.84016536 273.87484534 31.22736155 273.83372498 34.61473083 C272.19453598 34.61686836 272.19453598 34.61686836 270.52223206 34.61904907 C260.19441134 34.63576064 249.86698255 34.67866118 239.53936958 34.7468214 C234.23053019 34.78102735 228.92197663 34.80619145 223.61302185 34.81028748 C218.48396476 34.81458411 213.35555176 34.84316005 208.22669601 34.88816261 C206.27565648 34.90109403 204.3245397 34.90546083 202.37346268 34.90088463 C190.06030331 34.87874268 180.48346451 35.02530395 171.14622498 43.98973083 C170.03236467 45.18913431 168.92822268 46.39763254 167.83372498 47.61473083 C161.07117015 54.75893846 153.99988779 60.32446348 143.79590225 60.73777866 C142.59757137 60.73685687 141.39924049 60.73593508 140.16459656 60.73498535 C139.49555982 60.73583978 138.82652309 60.7366942 138.13721251 60.73757452 C135.8970253 60.73922068 133.65691309 60.73372209 131.41673279 60.72825623 C129.81025189 60.72797414 128.20377086 60.7281325 126.59729004 60.72869873 C122.23608447 60.72898588 117.87490635 60.72310247 113.51370716 60.71612477 C108.95597281 60.70987751 104.39823785 60.70928635 99.84049988 60.70809937 C91.20975578 60.70499011 82.57902434 60.69678216 73.94828582 60.68674988 C64.12250507 60.67557618 54.29672372 60.67007512 44.47093821 60.66505444 C24.25852673 60.65459923 4.04612665 60.63700761 -16.16627502 60.61473083 C-16.29305601 52.87361639 -16.38061914 45.13276967 -16.44093323 37.39085388 C-16.4660766 34.75728856 -16.50019586 32.12379302 -16.54347229 29.49046326 C-16.60412713 25.70488775 -16.63248773 21.92023486 -16.65455627 18.13426208 C-16.6803627 16.95701065 -16.70616913 15.77975922 -16.73275757 14.5668335 C-16.73313522 13.46606979 -16.73351288 12.36530609 -16.73390198 11.23118591 C-16.74500504 10.26521988 -16.75610809 9.29925385 -16.76754761 8.30401611 C-14.77609716 -0.60305617 -7.50100931 -0.09268441 0 0 Z " fill="#E7EBEF" transform="translate(127.16627502441406,238.38526916503906)"/>
</svg>
